PathFileType	4	(X/Y/Z)	C:/Users/beibeiliu/ov580/test_trc/User2\sequence.16_training_dense_left.trc
DataRate	CameraRate	NumFrames	NumMarkers	Units	OrigDataRate	OrigDataStartFrame	OrigNumFrames
120	120	22	19	mm	120	206	411
Frame#	Time	ThumbCMC			ThumbMCP			ThumbIP			ThumbTip			IndexMCP			IndexPIP			IndexTip			MiddleMCP			MiddlePIP			MiddleTip			RingMCP			RingPIP			RingTip			PinkyMCP			PinkyPIP			PinkyTip			BackHand1			BackHand2			BackHand3	
		X0	Y0	Z0	X1	Y1	Z1	X2	Y2	Z2	X3	Y3	Z3	X4	Y4	Z4	X5	Y5	Z5	X6	Y6	Z6	X7	Y7	Z7	X8	Y8	Z8	X9	Y9	Z9	X10	Y10	Z10	X11	Y11	Z11	X12	Y12	Z12	X13	Y13	Z13	X14	Y14	Z14	X15	Y15	Z15	X16	Y16	Z16	X17	Y17	Z17	X18	Y18	Z18	
205	1.70833	-154.225	88.0155	68.7908	-125.458	81.6655	52.4769	-101.177	73.636	25.4885	-82.1706	68.4638	10.5	-195.402	70.6776	1.92709	-200.011	72.9474	-30.388	-201.041	65.5605	-56.9874	-192.859	38.6292	-5.77976	-163.489	23.3976	-21.5015	-144.706	33.7286	14.7917	-188.32	13.5946	0.692812	-157.684	8.24114	-6.92007	-145.475	22.9308	21.1868	-186.983	1.91508	18.4755	-158.274	-3.38063	6.84035	-143.452	10.8624	30.3396	-206.358	33.7829	60.4794	-207.336	36.0098	94.9511	-199.857	68.2452	70.013	
206	1.71667	-157.229	87.0977	68.3118	-127.385	83.3213	51.6155	-103.032	77.0634	28.1318	-81.8975	72.8131	8.72047	-196.275	65.0175	0.312714	-199.699	67.0834	-32.7006	-199.314	61.7009	-58.5546	-189.92	35.892	-7.09567	-160.055	21.9789	-19.5135	-142.496	35.4338	13.0673	-185.463	12.5434	4.37937	-154.981	9.50053	-7.06785	-145.032	21.6273	27.274	-182.414	-0.516163	24.6781	-153.317	-2.0052	9.0963	-142.075	15.1121	36.8673	-204.677	32.1151	60.0904	-207.681	35.6542	96.5483	-199.34	68.7614	66.5028	
207	1.725	-160.786	86.059	69.3004	-128.816	84.3827	51.7471	-103.149	80.9487	26.9249	-82.8234	77.8389	12.7681	-195.943	60.9447	-2.8984	-197.966	59.7768	-31.2738	-196.202	51.6999	-57.4182	-187.459	28.3432	-6.89869	-157.062	18.9179	-19.9809	-139.972	32.828	16.0225	-180.143	11.4909	2.7252	-151.689	2.84895	-3.96787	-142.493	21.4721	25.2936	-177.104	-8.77658	24.0023	-146.137	-7.99172	12.5453	-139.891	9.81013	41.5353	-202.099	27.9469	61.0499	-208.239	33.6468	92.3439	-200.786	64.4694	69.2731	
208	1.73333	-163.856	83.8524	68.7625	-133.654	81.0658	48.9605	-104.67	81.9565	26.8407	-83.2209	76.1344	10.541	-194.627	48.3917	-3.44429	-197.086	47.5606	-34.1464	-193.781	36.4728	-57.9586	-184.716	18.3451	-3.71812	-151.675	12.209	-17.1886	-138.173	29.4733	19.7821	-176.046	-1.54657	7.60759	-144.184	2.21856	-0.158315	-141.018	19.2904	31.4106	-171.292	-11.4163	25.3067	-139.037	-8.72549	18.115	-135.424	7.84608	40.987	-199.724	21.038	63.205	-206.517	27.7059	94.0333	-202.194	55.94	66.5795	
209	1.74167	-167.751	77.4634	65.6076	-136.991	79.4549	50.2289	-106.92	76.4458	24.7216	-87.1938	72.6166	13.0656	-191.089	36.8297	-1.27946	-191.861	26.9449	-31.8537	-187.271	13.3794	-57.4436	-177.357	4.11572	-1.55915	-141.547	1.34484	-11.8201	-133.154	26.6028	19.1317	-167.872	-8.5797	10.2335	-136.518	-6.66404	3.2463	-137.605	15.6173	35.3226	-161.328	-22.7418	31.6453	-129.548	-16.8245	26.0012	-133.781	6.73435	50.5387	-197.968	9.92377	62.7769	-205.847	21.909	88.4804	-204.79	46.8668	65.2227	
210	1.75	-172.358	68.9754	59.7262	-140.169	73.2656	47.5555	-111.476	70.7171	26.8336	-88.1068	70.0671	12.5447	-187.63	21.7312	-5.45394	-185.003	8.88222	-33.1316	-177.494	-7.31731	-51.536	-166.49	-7.71179	-0.375108	-134.234	-6.68582	-7.86186	-130.225	20.2276	27.3353	-154.806	-21.3713	16.3338	-127.34	-13.0694	10.9755	-131.591	10.565	39.1381	-152.015	-31.1496	39.0952	-119.89	-19.0005	33.6531	-128.47	5.01445	54.6193	-195.483	1.60687	65.1439	-204.089	12.3022	95.267	-203.4	35.8462	59.2133	
211	1.75833	-175.862	60.018	60.6245	-143.424	65.7551	43.7193	-113.345	69.5369	24.5331	-93.1049	68.133	15.9431	-181.06	6.78561	-3.96653	-174.954	-8.81044	-25.3819	-164.51	-27.396	-47.6283	-156.754	-18.5465	6.65705	-123.183	-13.5207	-0.669714	-124.978	15.7192	32.3156	-141.329	-29.3797	20.5316	-113.687	-14.9008	21.1371	-126.966	9.0556	47.0864	-139.279	-35.2695	42.2711	-112.232	-20.4033	40.2094	-121.988	3.81677	59.327	-187.607	-12.514	66.4532	-200.526	0.554077	93.0305	-204.404	26.0248	57.7068	
212	1.76667	-178.971	57.9885	57.5929	-149.3	69.3996	44.5297	-118.248	68.7921	24.3981	-96.7314	69.4877	15.6126	-173.346	-2.77751	0.428121	-166.728	-17.783	-21.5309	-153.626	-34.3253	-42.0773	-149.644	-19.3445	9.41396	-113.028	-16.0562	8.03977	-119.018	15.8054	33.1255	-134.415	-30.3227	26.8777	-106.508	-13.446	27.4079	-118.402	8.2259	49.2286	-133.428	-34.7113	51.5168	-104.04	-19.5909	46.1363	-115.394	1.42254	67.0391	-181.134	-17.8077	71.365	-199.259	-5.77658	97.1195	-197.91	13.8504	61.492	
213	1.775	-182.245	51.6766	63.5899	-154.071	70.1576	45.1428	-125.977	71.6222	25.1858	-102.403	77.1042	10.0297	-166.558	-7.80887	3.47471	-158.236	-20.3306	-18.4556	-143.051	-36.5558	-32.9979	-137.502	-22.3186	11.4452	-106.796	-12.0343	9.36221	-112.798	16.6863	38.6328	-126.415	-29.2416	31.8343	-99.629	-10.545	30.7946	-114.465	13.2972	51.1308	-124.039	-32.9291	53.6607	-98.8013	-13.5	49.1058	-113.184	9.05123	70.1762	-174.937	-20.77	73.2673	-193.226	-9.31252	98.5296	-198	13.4599	63.6136	
214	1.78333	-185.921	52.9615	64.1336	-160.964	70.6991	43.8192	-134.885	79.1379	23.6716	-115.446	86.3364	12.7459	-162.196	-3.41941	5.41775	-149.328	-17.4004	-13.8534	-132.266	-30.2026	-35.2058	-134.566	-15.5182	15.859	-100.991	1.92288	11.3999	-111.655	28.8832	37.9416	-119.074	-22.7577	35.2735	-93.6895	-4.63884	33.9754	-113.199	19.3017	57.1043	-116.602	-27.468	57.012	-92.0217	-4.1294	54.3238	-111.024	16.6679	73.9713	-170.604	-18.9915	71.3438	-189.9	-8.51867	97.9569	-195.535	8.84305	64.7943	
215	1.79167	-187.247	53.5715	65.4623	-170.985	75.6003	45.8367	-147.239	88.6827	23.9639	-130.206	98.2454	12.6938	-157.184	5.26051	11.4997	-143.552	-8.02961	-11.4314	-124.895	-17.6257	-30.5348	-124.562	-6.98902	17.5433	-97.1251	11.3036	13.597	-110.336	41.6547	42.2193	-110.627	-10.5073	32.6398	-88.757	8.8648	37.9824	-110.129	31.919	56.6537	-106.962	-17.8399	58.657	-87.5602	7.18839	55.5508	-109.59	28.0314	73.9425	-162.791	-14.1038	74.5166	-188.256	-7.23775	98.6302	-191.542	10.4697	63.1707	
216	1.8	-193.264	56.2162	70.5311	-176.888	79.843	46.2778	-160.027	97.4484	25.5033	-141.352	107.387	10.1207	-155.187	13.104	9.85321	-137.828	2.00547	-15.2969	-121.375	-3.77311	-33.5659	-125.095	6.75702	16.8569	-93.9975	29.7586	14.7304	-109.702	52.369	45.3388	-110.203	1.88576	36.205	-87.6749	25.2076	38.3976	-111.869	44.5801	58.7564	-104.175	-4.20424	57.0543	-85.0701	21.0659	55.9307	-109.369	39.8656	72.4282	-160.674	-7.02091	71.6865	-179.16	-6.11092	99.0325	-188.541	14.0291	65.87	
217	1.80833	-194.961	61.9948	66.1255	-183.074	85.7878	47.5121	-168.855	105.27	29.0546	-151.104	116.861	13.3254	-153.857	22.9909	6.52117	-139.493	16.0049	-14.2056	-121.277	13.5162	-38.3428	-118.429	18.8458	13.4736	-94.8745	44.1943	13.813	-110.511	66.2517	44.7198	-104.511	15.6255	32.5196	-86.0772	38.2698	36.8843	-113.467	56.6487	58.7382	-101.762	8.09527	58.1396	-81.2441	34.1214	57.0738	-108.783	49.2781	73.1816	-156.215	-0.767861	70.3041	-175.728	-0.604146	98.9955	-185.925	17.9783	65.6712	
218	1.81667	-195.467	64.1845	66.9885	-189.214	89.8347	50.884	-175.016	111.183	27.8673	-160.172	127.586	13.3851	-152.884	31.492	6.90174	-138.638	26.8606	-16.4139	-121.675	26.1186	-41.7672	-117.032	28.4718	12.8855	-95.0186	54.6827	13.7946	-114.195	75.8267	45.2445	-104.346	24.9052	32.4407	-88.2281	53.9343	33.2269	-109.3	65.8185	57.581	-98.5278	17.1724	57.4504	-84.0939	48.1838	51.2522	-107.851	61.8354	71.0309	-152.024	5.61324	69.5864	-170.448	0.774064	96.1187	-185.404	20.2847	66.1495	
219	1.825	-196.79	65.976	68.5262	-194.75	93.9606	51.0847	-180.192	116.927	25.6155	-168.654	133.12	16.683	-154.677	37.5717	5.69828	-139.724	33.1533	-18.5418	-122.262	34.4089	-46.5423	-119.842	36.5902	12.4678	-95.5453	62.7723	12.1202	-114.704	82.0504	43.8402	-101.539	35.164	27.2013	-90.258	60.8319	28.5486	-112.635	74.0218	57.2069	-99.1494	27.8896	51.2519	-81.209	54.8507	49.9168	-105.173	69.5096	65.9883	-147.817	11.857	68.3011	-169.457	5.10182	93.0383	-181.377	24.6915	63.3624	
220	1.83333	-199.486	68.3537	68.5827	-196.939	95.5713	50.996	-188.481	121.154	28.7204	-173.879	136.352	13.9493	-155.833	40.1155	3.74958	-143.74	37.6368	-24.5601	-131.588	37.6549	-47.4568	-124.662	40.87	8.32028	-101.393	70.0519	5.26347	-121.508	87.1974	38.4821	-102.817	38.9085	22.6553	-89.9852	65.0921	26.7086	-112.628	77.529	51.8163	-94.0277	31.463	45.6843	-82.6667	60.5826	43.1031	-107.961	75.0964	62.3666	-143.74	13.9556	66.3964	-166.074	10.9674	90.5036	-182.54	28.1607	61.0646	
221	1.84167	-201.363	68.6539	67.9491	-198.528	96.2703	47.942	-190.251	120.347	23.6111	-181.232	137.375	9.1934	-160.275	37.6728	2.51695	-151.488	34.5391	-24.6913	-138.933	34.3877	-52.0075	-128.647	38.9342	1.92057	-105.105	68.275	0.845017	-125.517	84.6429	34.1878	-110.002	39.1952	16.7996	-95.5161	66.6464	18.9949	-116.392	77.093	48.6958	-99.8134	33.293	37.8747	-85.7878	61.8729	35.124	-106.07	76.9006	58.4178	-145.889	15.9918	62.5669	-164.367	8.04802	95.6804	-184.212	28.0496	59.821	
222	1.85	-200.234	65.6902	67.1435	-199.792	92.6829	44.8511	-194.576	114.81	18.3983	-184.483	131.161	0.472588	-169.428	32.3136	1.16029	-162.866	28.4067	-26.8701	-152.859	26.4781	-53.7446	-135.747	31.9977	0.143895	-114.055	63.1278	-7.77982	-130.153	78.7877	27.0383	-114.955	34.1125	9.74875	-100.301	60.9127	9.17199	-116.973	73.8489	39.6621	-104.835	28.2729	36.4333	-89.6921	59.3148	26.5616	-108.067	74.4576	50.4115	-145.555	11.9073	62.1424	-163.195	10.412	93.1576	-183.037	24.3341	65.7508	
223	1.85833	-202.43	62.6738	65.95	-201.819	87.2152	47.6681	-196.311	105.218	18.8664	-191.03	122.555	-3.01543	-175.138	23.6653	-1.03524	-168.642	17.0869	-27.6042	-160.609	13.2118	-56.0598	-138.36	22.7958	-3.27566	-122.092	51.1665	-16.8117	-136.206	72.9803	17.821	-122.02	24.9931	6.29255	-107.572	53.8314	1.97299	-122.367	67.6553	28.5897	-107.735	21.8147	25.6557	-97.3661	50.2249	15.3183	-110.923	68.7203	39.8618	-151.137	7.65085	60.2524	-158.91	4.72477	92.363	-183.15	21.2765	65.6907	
224	1.86667	-200.739	58.541	65.4616	-200.47	80.1225	41.3587	-202.828	102.907	15.476	-194.944	115.126	-6.75305	-181.386	15.2156	-1.76765	-176.683	7.07188	-30.1424	-171.921	3.95706	-58.1196	-144.57	13.6141	-7.31028	-126.311	42.3064	-19.2349	-141.408	64.5769	11.3687	-126.641	15.605	6.51873	-111.085	44.2596	-4.01002	-127.006	60.1187	23.193	-109.477	11.9359	23.5109	-97.9437	40.1137	9.11012	-114.701	61.8405	32.0533	-149.816	2.46426	62.7578	-160.843	2.78222	94.7069	-187.587	16.9957	64.2718	
225	1.875	-202.829	55.8571	65.3115	-206.159	78.1003	42.2013	-201.893	93.3309	16.3445	-197.629	106.835	-12.426	-184.391	5.89577	-2.48233	-185.299	-0.622056	-30.5031	-176.028	-7.36986	-53.2452	-153.453	5.22975	-5.02456	-131.318	29.6215	-22.7007	-142.021	54.7953	6.45441	-127.54	7.25495	0.407887	-119.941	35.1856	-10.1242	-128.789	51.631	19.4579	-115.472	6.39904	19.6344	-103.873	31.5776	4.83198	-116.02	54.1753	28.1299	-152.088	-2.34981	62.7204	-159.722	3.61678	96.2923	-187.371	14.1315	66.6558	
226	1.88333	-202.228	53.1592	64.655	-201.03	72.5831	41.0065	-205.68	91.9037	10.0558	-199.841	101.569	-13.773	-187.897	2.48867	1.84051	-188.644	-8.64274	-26.9819	-184.036	-14.5873	-52.2128	-155.232	-1.26563	-6.33802	-136.352	24.9746	-24.2612	-146.062	49.033	5.4227	-133.799	2.37277	-0.591919	-120.036	27.1461	-9.86256	-134.48	44.7644	20.1952	-114.585	-1.13115	19.1793	-104.297	25.621	3.30022	-119.197	45.538	22.5246	-149.081	-6.46549	61.0831	-160.466	0.449216	93.8833	-185.941	10.1348	70.4795	
